<svg width="512" height="512" viewBox="0 0 512 512" fill="none" xmlns="http://www.w3.org/2000/svg">
<g clip-path="url(#clip0_273_47)">
<path d="M432.13 17.61C430.437 17.59 428.96 18.2034 427.7 19.45C418.42 28.6634 397.287 49.7967 364.3 82.85C364.197 82.9556 364.125 83.0877 364.091 83.2322C364.058 83.3767 364.064 83.5281 364.11 83.67C367.24 93.32 365.37 102.96 358.45 110.43C351.43 118.003 342.18 120.33 330.7 117.41C330.549 117.373 330.391 117.372 330.239 117.409C330.088 117.445 329.948 117.518 329.83 117.62C323.35 123.31 319.48 127.55 326.97 135.09C343.617 151.843 360.39 168.493 377.29 185.04" stroke="#804C01" stroke-width="2"/>
<path d="M377.29 185.04C383.03 193.3 390.05 187.58 394.51 182.15C394.609 182.031 394.676 181.888 394.705 181.737C394.735 181.585 394.726 181.428 394.68 181.28C391.853 172.133 393.3 163.69 399.02 155.95" stroke="#7B3E00" stroke-width="2"/>
<path d="M399.021 155.95C403.781 150.423 409.857 147.26 417.251 146.46" stroke="#804C01" stroke-width="2"/>
<path d="M417.25 146.46C420.97 146.213 424.663 146.623 428.33 147.69C428.473 147.729 428.624 147.729 428.768 147.691C428.912 147.652 429.044 147.576 429.15 147.47C449.97 126.603 470.87 105.813 491.85 85.1C495.06 81.93 495.28 78.33 493.81 73.97C485.13 48.11 461.52 25.09 435.35 17.32C434.35 17.0267 433.277 17.1233 432.13 17.61" stroke="#7B3E00" stroke-width="2"/>
<path d="M417.25 146.46C440.09 123.093 458.073 105.01 471.2 92.21C478.04 85.54 479 79.02 475.81 69.85C468.11 47.68 451.51 30.28 432.13 17.61" stroke="#FA8A01" stroke-width="2"/>
<path d="M399.021 155.95C392.061 153.983 386.341 155.17 381.861 159.51C376.261 164.91 374.861 171.95 377.481 179.32C378.121 181.14 378.057 183.047 377.291 185.04" stroke="#FA8A01" stroke-width="2"/>
<path d="M441.5 460.71C450.31 460.81 460.75 462.97 460.75 450.48C460.75 347.26 460.75 244.097 460.75 140.99C460.75 140.543 460.593 140.477 460.28 140.79L443.79 157.21C443.679 157.321 443.591 157.453 443.531 157.599C443.471 157.745 443.44 157.901 443.44 158.06L443.5 388.75" stroke="#1C2428" stroke-width="2"/>
<path d="M443.5 388.75C440.98 396.09 436.49 399.77 429.12 401.51C414.94 404.863 405.903 413.46 402.01 427.3C400.797 431.627 399.867 434.337 399.22 435.43C394.63 443.19 387.99 443.74 378.57 443.74C283.797 443.753 189.023 443.757 94.2501 443.75C86.7301 443.75 81.4235 440.777 78.3301 434.83C78.1501 434.49 77.1701 431.497 75.3901 425.85C71.2701 412.843 62.4568 404.743 48.9501 401.55C38.3501 399.05 34.2501 393.08 34.2501 382.27C34.2501 298.51 34.2501 214.75 34.2501 130.99C34.2501 126.243 34.6868 122.807 35.5601 120.68C39.9201 110.03 49.1101 111.66 57.6001 107.41C66.4135 103.01 72.3001 95.9167 75.2601 86.13C79.3701 72.52 82.7701 68.26 97.8401 68.26C183.307 68.2467 268.777 68.2467 354.25 68.26C354.414 68.26 354.575 68.229 354.723 68.1689C354.871 68.1088 355.002 68.0207 355.11 67.91L371.11 51.62C371.343 51.3867 371.287 51.27 370.94 51.27C266.72 51.2433 162.5 51.24 58.2801 51.26C50.7935 51.26 45.6301 51.61 42.7901 52.31C31.1901 55.16 21.5601 64.64 18.3901 76.05C17.4768 79.3367 17.0168 85.5533 17.0101 94.7C16.9901 204.967 16.9901 315.233 17.0101 425.5C17.0101 441.06 26.4301 454.84 41.3101 459.28C44.5368 460.247 49.5901 460.73 56.4701 460.73C184.817 460.777 313.16 460.77 441.5 460.71" stroke="#303F46" stroke-width="2"/>
<path d="M443.5 388.75C443.793 409.497 443.88 430.247 443.76 451C443.74 454.413 442.987 457.65 441.5 460.71" stroke="#4C626D" stroke-width="2"/>
<path d="M51.7605 384.8C73.1405 389.15 88.7505 404.76 93.0705 426.2C93.0983 426.341 93.1733 426.468 93.2827 426.559C93.3922 426.65 93.5292 426.7 93.6705 426.7L204.441 426.73C204.523 426.73 204.602 426.698 204.66 426.642C204.718 426.586 204.751 426.51 204.751 426.43L204.741 320.55C204.741 320.395 204.709 320.241 204.647 320.096C204.585 319.952 204.495 319.821 204.381 319.71C195.251 310.85 182.101 302.47 190.451 287.45C194.884 279.477 199.32 271.503 203.76 263.53C204.42 262.343 204.751 261.07 204.751 259.71C204.751 201.657 204.751 143.61 204.751 85.57C204.751 85.4878 204.718 85.4089 204.66 85.3508C204.602 85.2927 204.523 85.26 204.441 85.26L93.7805 85.28C93.6372 85.2805 93.4983 85.329 93.3858 85.4179C93.2734 85.5067 93.1941 85.6307 93.1605 85.77C88.0472 108.123 74.2538 121.973 51.7805 127.32C51.6443 127.352 51.5228 127.429 51.4357 127.54C51.3486 127.65 51.3009 127.788 51.3005 127.93L51.2705 384.2C51.2701 384.341 51.3187 384.478 51.408 384.588C51.4974 384.697 51.622 384.772 51.7605 384.8Z" stroke="#2A2E30" stroke-width="2"/>
<path d="M242.541 233.05C269.001 207.01 295.221 180.68 321.431 154.37C321.525 154.276 321.577 154.147 321.577 154.013C321.577 153.878 321.525 153.748 321.431 153.65C317.091 149.11 311.261 144.31 308.581 139.28C301.241 125.47 308.581 112.64 319.661 103.65C324.251 99.93 329.641 99.31 335.261 100.92C342.061 102.87 347.951 100.07 348.491 92.85C348.661 90.56 347.631 87.98 346.861 85.73C346.814 85.5927 346.725 85.4735 346.604 85.3891C346.484 85.3048 346.339 85.2596 346.191 85.26H222.531C222.356 85.26 222.188 85.3295 222.064 85.4533C221.94 85.5771 221.871 85.745 221.871 85.92C221.671 128.01 222.051 170.11 221.741 212.19C221.667 222.277 221.751 232.36 221.991 242.44C221.991 242.496 222.006 242.55 222.032 242.599C222.059 242.648 222.097 242.689 222.143 242.72C222.19 242.75 222.243 242.769 222.298 242.774C222.353 242.78 222.409 242.771 222.461 242.75C228.241 240.32 238.201 237.32 242.541 233.05Z" stroke="#1C2428" stroke-width="2"/>
<path d="M426.66 373.31C426.84 304.15 426.85 234.987 426.69 165.82C426.69 165.666 426.646 165.516 426.564 165.39C426.482 165.263 426.366 165.166 426.23 165.11C416.45 161.07 408.23 165.74 411.33 177C413.93 186.42 409.43 191.73 403.15 197.89C394.89 205.99 382.57 209.31 372.25 203.26C367.66 200.58 362.91 194.86 358.34 190.76C358.241 190.668 358.11 190.618 357.974 190.622C357.837 190.626 357.707 190.683 357.61 190.78L277.12 271.26C275.96 272.42 276.2 273 277.84 273C303.306 272.993 329.273 272.997 355.74 273.01C371.09 273.02 375.53 281.85 375.52 295.14C375.486 325.16 375.486 355.177 375.52 385.19C375.526 391.583 375.143 395.917 374.37 398.19C371.62 406.27 364.75 409.49 356.4 409.5C323.906 409.507 291.41 409.503 258.91 409.49C250.91 409.49 245.87 407.95 241.58 401.54C241.49 401.407 241.372 401.299 241.236 401.224C241.1 401.149 240.95 401.11 240.8 401.11L222.56 401.05C222.425 401.05 222.295 401.104 222.199 401.199C222.103 401.295 222.05 401.425 222.05 401.56L222.01 426.25C222.01 426.314 222.023 426.378 222.049 426.438C222.074 426.497 222.112 426.551 222.159 426.597C222.207 426.642 222.263 426.678 222.325 426.703C222.386 426.727 222.453 426.74 222.52 426.74L384.19 426.75C384.353 426.751 384.512 426.694 384.638 426.59C384.764 426.486 384.849 426.341 384.88 426.18C388.95 404.69 404.69 389.3 426.19 384.86C426.342 384.83 426.478 384.746 426.575 384.623C426.672 384.501 426.723 384.347 426.72 384.19C426.666 380.65 426.646 377.023 426.66 373.31Z" stroke="#1C2428" stroke-width="2"/>
<path d="M224.19 262.44C219.016 270.847 212.743 282.043 205.37 296.03C205.303 296.159 205.279 296.305 205.301 296.447C205.322 296.589 205.389 296.72 205.49 296.82L215.2 306.56C215.312 306.675 215.46 306.751 215.621 306.774C215.782 306.798 215.946 306.768 216.09 306.69C225.45 301.53 234.806 296.303 244.16 291.01C249.44 288.01 251.6 287.05 254.26 280.91C256.813 275.01 259.377 269.11 261.95 263.21C262.477 261.997 263.207 260.923 264.14 259.99L345.63 178.5C345.672 178.458 345.706 178.409 345.729 178.355C345.752 178.301 345.765 178.243 345.765 178.184C345.766 178.126 345.756 178.068 345.734 178.014C345.713 177.96 345.681 177.911 345.64 177.87L334.09 166.51C333.994 166.417 333.863 166.367 333.726 166.37C333.59 166.374 333.458 166.431 333.36 166.53L252.3 247.58C251.353 248.52 250.273 249.267 249.06 249.82C242.82 252.64 236.313 255.453 229.54 258.26C227.053 259.287 225.27 260.68 224.19 262.44Z" stroke="#4F4F4F" stroke-width="2"/>
<path d="M341.61 290.28H269.31C269.163 290.28 269.018 290.322 268.891 290.402C268.764 290.481 268.66 290.595 268.59 290.73C265.85 296.27 261.8 300.623 256.44 303.79C256.306 303.869 256.196 303.98 256.118 304.111C256.041 304.243 256 304.391 256 304.54V392.18C256 392.219 256.008 392.258 256.024 392.295C256.039 392.331 256.062 392.364 256.091 392.392C256.12 392.42 256.154 392.442 256.191 392.457C256.229 392.472 256.269 392.48 256.31 392.48L341.25 392.46" stroke="#30550C" stroke-width="2"/>
<path d="M341.25 392.46L358 392.49C358.133 392.49 358.26 392.437 358.354 392.344C358.447 392.25 358.5 392.123 358.5 391.99L358.49 290.79C358.49 290.657 358.436 290.53 358.341 290.436C358.245 290.343 358.115 290.29 357.98 290.29L341.61 290.28" stroke="#2A4A0A" stroke-width="2"/>
<path d="M341.25 392.46L341.42 372.32C341.423 372.17 341.382 372.024 341.304 371.901C341.225 371.777 341.112 371.683 340.98 371.63L340.04 371.25" stroke="#5A9F16" stroke-width="2"/>
<path d="M340.04 371.25C341.167 368.763 341.533 366.183 341.14 363.51" stroke="#2A4A0A" stroke-width="2"/>
<path d="M341.141 363.51L341.611 290.28" stroke="#5A9F16" stroke-width="2"/>
<path d="M341.14 363.51C339.846 361.757 338.41 360.44 336.83 359.56C335.59 358.867 333.753 358.52 331.32 358.52C315.266 358.5 299.206 358.49 283.14 358.49C281.053 358.49 279.49 358.697 278.45 359.11C271.73 361.76 271.38 371.3 277.81 374.44C279.23 375.133 281.46 375.483 284.5 375.49C300.326 375.517 316.16 375.527 332 375.52C335.493 375.52 338.173 374.097 340.04 371.25" stroke="#30550C" stroke-width="2"/>
<path d="M221.89 323.99L221.93 332.15C221.932 332.286 221.984 332.416 222.074 332.511C222.163 332.606 222.284 332.66 222.41 332.66L238.39 332.65C238.457 332.65 238.523 332.636 238.585 332.61C238.647 332.583 238.703 332.544 238.75 332.495C238.798 332.446 238.835 332.387 238.861 332.323C238.886 332.259 238.9 332.19 238.9 332.12L238.96 314.04C238.958 313.986 238.943 313.933 238.915 313.887C238.886 313.84 238.846 313.802 238.798 313.775C238.75 313.748 238.696 313.733 238.64 313.732C238.584 313.731 238.529 313.744 238.48 313.77L222.77 322.49C222.503 322.638 222.281 322.855 222.126 323.119C221.971 323.383 221.89 323.683 221.89 323.99Z" stroke="#1C2428" stroke-width="2"/>
<path d="M239.029 350.465C239.029 350.401 239.017 350.337 238.992 350.278C238.968 350.218 238.932 350.164 238.886 350.118C238.841 350.073 238.787 350.037 238.727 350.012C238.668 349.987 238.604 349.974 238.54 349.974L222.28 349.946C222.216 349.946 222.152 349.958 222.092 349.983C222.033 350.007 221.979 350.043 221.933 350.089C221.888 350.134 221.851 350.188 221.827 350.248C221.802 350.307 221.789 350.371 221.789 350.435L221.731 383.495C221.731 383.559 221.744 383.623 221.768 383.682C221.793 383.742 221.829 383.796 221.874 383.842C221.92 383.887 221.974 383.923 222.033 383.948C222.093 383.973 222.156 383.986 222.221 383.986L238.481 384.014C238.545 384.014 238.609 384.002 238.668 383.977C238.728 383.953 238.782 383.917 238.827 383.871C238.873 383.826 238.909 383.772 238.934 383.712C238.958 383.653 238.971 383.589 238.971 383.525L239.029 350.465Z" stroke="#7F6104" stroke-width="2"/>
<path d="M59.7902 478.35C59.6102 484.81 58.7102 494.92 68.5602 494.97C77.0268 495.023 98.5902 495.033 133.25 495C145.41 494.99 145.57 488.41 144.86 478.45C144.853 478.315 144.793 478.187 144.695 478.094C144.596 478.001 144.466 477.95 144.33 477.95L60.3002 477.85C60.1683 477.85 60.0415 477.902 59.9465 477.995C59.8514 478.089 59.7954 478.216 59.7902 478.35Z" stroke="#4F4F4F" stroke-width="2"/>
<path d="M349.95 478.48C349.58 484.12 348.97 494.92 358.56 494.98C366.24 495.027 387.024 495.03 420.91 494.99C434.02 494.98 436.06 491.36 435.11 478.48C435.103 478.342 435.042 478.212 434.942 478.117C434.842 478.023 434.709 477.97 434.57 477.97H350.48C350.345 477.97 350.214 478.023 350.116 478.118C350.017 478.212 349.958 478.342 349.95 478.48Z" stroke="#4F4F4F" stroke-width="2"/>
<path d="M435.675 64.1289C437.237 62.5621 438.112 60.4393 438.108 58.2274C438.104 56.0155 437.222 53.8957 435.655 52.3344L435.428 52.1085C433.861 50.5472 431.738 49.6722 429.527 49.6761C427.315 49.68 425.195 50.5623 423.634 52.1291L385.545 90.3511C383.983 91.9179 383.108 94.0407 383.112 96.2526C383.116 98.4645 383.999 100.584 385.565 102.146L385.792 102.372C387.359 103.933 389.482 104.808 391.694 104.804C393.905 104.8 396.025 103.918 397.587 102.351L435.675 64.1289Z" stroke="#804C01" stroke-width="2"/>
<path d="M459.741 76.28C458.18 74.7132 456.06 73.8308 453.849 73.827C451.637 73.8231 449.514 74.6981 447.947 76.2594L409.654 114.419C408.087 115.98 407.205 118.1 407.201 120.312C407.197 122.524 408.072 124.647 409.634 126.213L409.86 126.44C411.421 128.007 413.541 128.889 415.752 128.893C417.964 128.897 420.087 128.022 421.654 126.461L459.947 88.3012C461.514 86.7399 462.396 84.6201 462.4 82.4082C462.404 80.1963 461.529 78.0735 459.967 76.5067L459.741 76.28Z" stroke="#804C01" stroke-width="2"/>
<path d="M170.481 110.73C170.481 108.547 169.613 106.454 168.07 104.911C166.527 103.367 164.433 102.5 162.251 102.5H119.291C117.108 102.5 115.014 103.367 113.471 104.911C111.928 106.454 111.061 108.547 111.061 110.73V111.23C111.061 113.413 111.928 115.506 113.471 117.049C115.014 118.593 117.108 119.46 119.291 119.46H162.251C164.433 119.46 166.527 118.593 168.07 117.049C169.613 115.506 170.481 113.413 170.481 111.23V110.73Z" stroke="#2A2E30" stroke-width="2"/>
<path d="M179.22 162.31C179.22 155.467 176.502 148.905 171.663 144.067C166.825 139.228 160.262 136.51 153.42 136.51H94.0598C87.2172 136.51 80.6548 139.228 75.8164 144.067C70.978 148.905 68.2598 155.467 68.2598 162.31V178.95C68.2598 182.338 68.9271 185.693 70.2237 188.823C71.5202 191.953 73.4207 194.798 75.8164 197.193C78.2122 199.589 81.0563 201.49 84.1865 202.786C87.3167 204.083 90.6717 204.75 94.0598 204.75H153.42C156.808 204.75 160.163 204.083 163.293 202.786C166.423 201.49 169.267 199.589 171.663 197.193C174.059 194.798 175.959 191.953 177.256 188.823C178.552 185.693 179.22 182.338 179.22 178.95V162.31Z" stroke="#2A2E30" stroke-width="2"/>
<path d="M179.22 247.78C179.22 240.884 176.48 234.271 171.605 229.395C166.729 224.519 160.115 221.78 153.22 221.78H94.2598C87.3641 221.78 80.7509 224.519 75.875 229.395C70.999 234.271 68.2598 240.884 68.2598 247.78V264.22C68.2598 271.116 70.999 277.729 75.875 282.605C80.7509 287.481 87.3641 290.22 94.2598 290.22H153.22C160.115 290.22 166.729 287.481 171.605 282.605C176.48 277.729 179.22 271.116 179.22 264.22V247.78Z" stroke="#2A2E30" stroke-width="2"/>
<path d="M179.239 333.204C179.251 329.817 178.595 326.461 177.31 323.327C176.025 320.194 174.135 317.344 171.749 314.941C169.363 312.538 166.526 310.628 163.402 309.321C160.277 308.014 156.926 307.336 153.539 307.324L94.1796 307.117C90.7928 307.105 87.4369 307.76 84.3034 309.045C81.1699 310.33 78.3202 312.22 75.917 314.607C73.5138 316.993 71.6042 319.829 70.2973 322.954C68.9903 326.078 68.3115 329.43 68.2997 332.816L68.2414 349.516C68.2295 352.903 68.8849 356.259 70.17 359.393C71.4552 362.526 73.3449 365.376 75.7314 367.779C78.1178 370.182 80.9542 372.092 84.0787 373.399C87.2031 374.706 90.5544 375.384 93.9412 375.396L153.301 375.603C156.688 375.615 160.043 374.96 163.177 373.675C166.31 372.39 169.16 370.5 171.563 368.113C173.966 365.727 175.876 362.891 177.183 359.766C178.49 356.642 179.169 353.29 179.181 349.904L179.239 333.204Z" stroke="#2A2E30" stroke-width="2"/>
<path d="M170.481 400.75C170.481 398.57 169.615 396.479 168.073 394.938C166.531 393.396 164.441 392.53 162.261 392.53H119.281C117.1 392.53 115.01 393.396 113.468 394.938C111.927 396.479 111.061 398.57 111.061 400.75V401.27C111.061 403.45 111.927 405.541 113.468 407.082C115.01 408.624 117.1 409.49 119.281 409.49H162.261C164.441 409.49 166.531 408.624 168.073 407.082C169.615 405.541 170.481 403.45 170.481 401.27V400.75Z" stroke="#2A2E30" stroke-width="2"/>
<path d="M255.91 110.93C255.91 108.692 255.021 106.545 253.438 104.962C251.855 103.379 249.709 102.49 247.47 102.49C245.232 102.49 243.085 103.379 241.502 104.962C239.919 106.545 239.03 108.692 239.03 110.93C239.03 113.168 239.919 115.315 241.502 116.898C243.085 118.481 245.232 119.37 247.47 119.37C249.709 119.37 251.855 118.481 253.438 116.898C255.021 115.315 255.91 113.168 255.91 110.93Z" stroke="#1C2428" stroke-width="2"/>
<path d="M290.03 110.91C290.03 108.674 289.142 106.53 287.561 104.949C285.98 103.368 283.836 102.48 281.6 102.48C279.364 102.48 277.22 103.368 275.639 104.949C274.058 106.53 273.17 108.674 273.17 110.91C273.17 113.146 274.058 115.29 275.639 116.871C277.22 118.452 279.364 119.34 281.6 119.34C283.836 119.34 285.98 118.452 287.561 116.871C289.142 115.29 290.03 113.146 290.03 110.91Z" stroke="#1C2428" stroke-width="2"/>
<path d="M255.98 145C255.98 142.809 255.11 140.708 253.561 139.159C252.012 137.61 249.911 136.74 247.72 136.74H247.26C245.069 136.74 242.968 137.61 241.419 139.159C239.87 140.708 239 142.809 239 145V196.42C239 198.611 239.87 200.712 241.419 202.261C242.968 203.81 245.069 204.68 247.26 204.68H247.72C249.911 204.68 252.012 203.81 253.561 202.261C255.11 200.712 255.98 198.611 255.98 196.42V145Z" stroke="#1C2428" stroke-width="2"/>
<path d="M290.04 145.07C290.04 142.834 289.152 140.69 287.571 139.109C285.99 137.528 283.845 136.64 281.61 136.64C279.374 136.64 277.23 137.528 275.649 139.109C274.068 140.69 273.18 142.834 273.18 145.07C273.18 147.306 274.068 149.45 275.649 151.031C277.23 152.612 279.374 153.5 281.61 153.5C283.845 153.5 285.99 152.612 287.571 151.031C289.152 149.45 290.04 147.306 290.04 145.07Z" stroke="#1C2428" stroke-width="2"/>
<path d="M162.2 162.53C162.2 160.143 161.252 157.854 159.564 156.166C157.876 154.478 155.587 153.53 153.2 153.53H94.2803C91.8933 153.53 89.6041 154.478 87.9163 156.166C86.2285 157.854 85.2803 160.143 85.2803 162.53V178.75C85.2803 181.137 86.2285 183.426 87.9163 185.114C89.6041 186.802 91.8933 187.75 94.2803 187.75H153.2C155.587 187.75 157.876 186.802 159.564 185.114C161.252 183.426 162.2 181.137 162.2 178.75V162.53Z" stroke="#806E00" stroke-width="2"/>
<path d="M409.425 281.305C409.423 280.253 409.214 279.212 408.81 278.241C408.406 277.27 407.814 276.388 407.069 275.645C406.324 274.903 405.44 274.315 404.467 273.914C403.495 273.513 402.453 273.307 401.401 273.309L400.581 273.311C399.529 273.313 398.488 273.522 397.517 273.926C396.546 274.33 395.664 274.922 394.921 275.667C394.179 276.412 393.59 277.296 393.189 278.268C392.789 279.241 392.583 280.283 392.585 281.335L392.616 299.075C392.618 300.127 392.827 301.168 393.231 302.139C393.635 303.11 394.227 303.992 394.972 304.735C395.717 305.477 396.601 306.066 397.574 306.466C398.546 306.867 399.588 307.073 400.64 307.071L401.46 307.069C402.512 307.067 403.553 306.858 404.524 306.454C405.495 306.05 406.377 305.458 407.12 304.713C407.862 303.968 408.451 303.084 408.852 302.112C409.252 301.139 409.458 300.097 409.456 299.045L409.425 281.305Z" stroke="#1C2428" stroke-width="2"/>
<path d="M409.465 332.425C409.469 330.3 408.629 328.262 407.129 326.757C405.63 325.252 403.594 324.405 401.469 324.401L400.629 324.399C399.577 324.397 398.535 324.603 397.563 325.004C396.59 325.405 395.706 325.993 394.961 326.735C394.216 327.478 393.625 328.36 393.22 329.331C392.816 330.302 392.607 331.343 392.605 332.395L392.574 350.155C392.571 352.28 393.411 354.319 394.91 355.823C396.41 357.328 398.446 358.176 400.57 358.179L401.41 358.181C402.462 358.183 403.504 357.977 404.477 357.576C405.449 357.175 406.333 356.587 407.078 355.845C407.823 355.102 408.415 354.22 408.819 353.249C409.223 352.278 409.432 351.237 409.434 350.185L409.465 332.425Z" stroke="#1C2428" stroke-width="2"/>
<path d="M162.18 247.71C162.18 245.4 161.263 243.185 159.629 241.551C157.996 239.918 155.78 239 153.47 239H93.9903C91.6802 239 89.4648 239.918 87.8314 241.551C86.1979 243.185 85.2803 245.4 85.2803 247.71V264.29C85.2803 266.6 86.1979 268.815 87.8314 270.449C89.4648 272.082 91.6802 273 93.9903 273H153.47C155.78 273 157.996 272.082 159.629 270.449C161.263 268.815 162.18 266.6 162.18 264.29V247.71Z" stroke="#806E00" stroke-width="2"/>
<path d="M290.04 315.73C290.04 313.492 289.151 311.345 287.568 309.762C285.985 308.179 283.839 307.29 281.6 307.29C279.362 307.29 277.215 308.179 275.632 309.762C274.049 311.345 273.16 313.492 273.16 315.73C273.16 317.968 274.049 320.115 275.632 321.698C277.215 323.281 279.362 324.17 281.6 324.17C283.839 324.17 285.985 323.281 287.568 321.698C289.151 320.115 290.04 317.968 290.04 315.73Z" stroke="#30550C" stroke-width="2"/>
<path d="M162.2 333.19C162.2 330.819 161.258 328.545 159.582 326.868C157.905 325.192 155.631 324.25 153.26 324.25H94.2203C91.8492 324.25 89.5753 325.192 87.8987 326.868C86.2222 328.545 85.2803 330.819 85.2803 333.19V349.53C85.2803 350.704 85.5115 351.867 85.9608 352.951C86.4101 354.036 87.0686 355.021 87.8987 355.852C88.7289 356.682 89.7144 357.34 90.7991 357.789C91.8837 358.239 93.0463 358.47 94.2203 358.47H153.26C154.434 358.47 155.597 358.239 156.681 357.789C157.766 357.34 158.752 356.682 159.582 355.852C160.412 355.021 161.07 354.036 161.52 352.951C161.969 351.867 162.2 350.704 162.2 349.53V333.19Z" stroke="#806E00" stroke-width="2"/>
<path d="M432.56 4.88013e-06L434.1 -0.119995C467.64 6.3 497.9 34.77 509.3 66.5C512.28 74.8 513.01 81.91 509.28 89.55C507.98 92.2233 504.786 96.09 499.7 101.15C492.62 108.203 485.486 115.423 478.3 122.81C477.953 123.169 477.759 123.653 477.76 124.16C477.746 232.613 477.746 341.183 477.76 449.87C477.76 465.61 469.25 476.19 452.95 477.95C452.807 477.963 452.674 478.026 452.573 478.127C452.472 478.227 452.411 478.359 452.4 478.5C452.08 482.52 452.57 487.05 451.83 490.6C449.236 503.007 441.356 510.14 428.19 512H356.69C337.9 509.55 331.92 495.84 332.82 478.7C332.827 478.578 332.808 478.455 332.766 478.34C332.724 478.225 332.659 478.12 332.574 478.031C332.49 477.942 332.389 477.871 332.276 477.823C332.164 477.775 332.042 477.75 331.92 477.75L162.57 477.76C162.456 477.76 162.347 477.803 162.265 477.882C162.183 477.96 162.135 478.067 162.13 478.18C161.98 483.04 162.44 488.45 161.18 492.85C157.96 504.023 150.213 510.407 137.94 512H66.6897C53.3297 510.06 45.4431 502.76 43.0297 490.1C42.3497 486.49 42.9397 481.77 42.6397 477.68C42.6288 477.535 42.5717 477.397 42.4765 477.286C42.3813 477.174 42.2529 477.095 42.1097 477.06C16.9897 470.953 2.94306 454.913 -0.0302734 428.94L-0.000273438 83.19C1.43973 60.38 16.8997 41.02 39.0197 35.69C43.0197 34.73 49.2097 34.25 57.5897 34.25C167.85 34.25 277.74 34.25 387.26 34.25C388.406 34.25 389.376 33.8367 390.17 33.01C399.09 23.7833 407.853 15.0167 416.46 6.71C420.506 2.80334 425.873 0.566672 432.56 4.88013e-06ZM432.13 17.61C430.436 17.59 428.96 18.2033 427.7 19.45C418.42 28.6633 397.286 49.7967 364.3 82.85C364.197 82.9555 364.124 83.0877 364.091 83.2322C364.058 83.3767 364.064 83.5281 364.11 83.67C367.24 93.32 365.37 102.96 358.45 110.43C351.43 118.003 342.18 120.33 330.7 117.41C330.549 117.373 330.39 117.372 330.239 117.409C330.088 117.445 329.947 117.518 329.83 117.62C323.35 123.31 319.48 127.55 326.97 135.09C343.616 151.843 360.39 168.493 377.29 185.04C383.03 193.3 390.05 187.58 394.51 182.15C394.608 182.031 394.675 181.888 394.705 181.737C394.735 181.585 394.726 181.428 394.68 181.28C391.853 172.133 393.3 163.69 399.02 155.95C403.78 150.423 409.856 147.26 417.25 146.46C420.97 146.213 424.663 146.623 428.33 147.69C428.473 147.729 428.624 147.729 428.768 147.691C428.912 147.652 429.044 147.576 429.15 147.47C449.97 126.603 470.87 105.813 491.85 85.1C495.06 81.93 495.28 78.33 493.81 73.97C485.13 48.11 461.52 25.09 435.35 17.32C434.35 17.0267 433.276 17.1233 432.13 17.61ZM441.5 460.71C450.31 460.81 460.75 462.97 460.75 450.48C460.75 347.26 460.75 244.097 460.75 140.99C460.75 140.543 460.593 140.477 460.28 140.79L443.79 157.21C443.679 157.321 443.591 157.453 443.531 157.599C443.471 157.745 443.44 157.901 443.44 158.06L443.5 388.75C440.98 396.09 436.49 399.77 429.12 401.51C414.94 404.863 405.903 413.46 402.01 427.3C400.796 431.627 399.866 434.337 399.22 435.43C394.63 443.19 387.99 443.74 378.57 443.74C283.796 443.753 189.023 443.757 94.2497 443.75C86.7297 443.75 81.4231 440.777 78.3297 434.83C78.1497 434.49 77.1697 431.497 75.3897 425.85C71.2697 412.843 62.4564 404.743 48.9497 401.55C38.3497 399.05 34.2497 393.08 34.2497 382.27C34.2497 298.51 34.2497 214.75 34.2497 130.99C34.2497 126.243 34.6864 122.807 35.5597 120.68C39.9197 110.03 49.1097 111.66 57.5997 107.41C66.4131 103.01 72.2997 95.9167 75.2597 86.13C79.3697 72.52 82.7697 68.26 97.8397 68.26C183.306 68.2467 268.776 68.2467 354.25 68.26C354.414 68.26 354.575 68.229 354.722 68.1689C354.87 68.1088 355.002 68.0208 355.11 67.91L371.11 51.62C371.343 51.3867 371.286 51.27 370.94 51.27C266.72 51.2433 162.5 51.24 58.2797 51.26C50.7931 51.26 45.6297 51.61 42.7897 52.31C31.1897 55.16 21.5597 64.64 18.3897 76.05C17.4764 79.3367 17.0164 85.5533 17.0097 94.7C16.9897 204.967 16.9897 315.233 17.0097 425.5C17.0097 441.06 26.4297 454.84 41.3097 459.28C44.5364 460.247 49.5897 460.73 56.4697 460.73C184.816 460.777 313.16 460.77 441.5 460.71ZM51.7597 384.8C73.1397 389.15 88.7497 404.76 93.0697 426.2C93.0975 426.341 93.1725 426.468 93.2819 426.559C93.3914 426.65 93.5284 426.7 93.6697 426.7L204.44 426.73C204.522 426.73 204.601 426.698 204.659 426.642C204.717 426.586 204.75 426.51 204.75 426.43L204.74 320.55C204.74 320.395 204.708 320.241 204.646 320.096C204.584 319.952 204.494 319.821 204.38 319.71C195.25 310.85 182.1 302.47 190.45 287.45C194.883 279.477 199.32 271.503 203.76 263.53C204.42 262.343 204.75 261.07 204.75 259.71C204.75 201.657 204.75 143.61 204.75 85.57C204.75 85.4878 204.717 85.4089 204.659 85.3508C204.601 85.2927 204.522 85.26 204.44 85.26L93.7797 85.28C93.6364 85.2805 93.4975 85.329 93.3851 85.4179C93.2727 85.5067 93.1933 85.6307 93.1597 85.77C88.0464 108.123 74.2531 121.973 51.7797 127.32C51.6435 127.352 51.522 127.429 51.4349 127.54C51.3478 127.65 51.3001 127.788 51.2997 127.93L51.2697 384.2C51.2693 384.341 51.3179 384.478 51.4073 384.588C51.4966 384.697 51.6212 384.772 51.7597 384.8ZM242.54 233.05C269 207.01 295.22 180.68 321.43 154.37C321.524 154.276 321.576 154.147 321.576 154.013C321.576 153.878 321.524 153.748 321.43 153.65C317.09 149.11 311.26 144.31 308.58 139.28C301.24 125.47 308.58 112.64 319.66 103.65C324.25 99.93 329.64 99.31 335.26 100.92C342.06 102.87 347.95 100.07 348.49 92.85C348.66 90.56 347.63 87.98 346.86 85.73C346.813 85.5927 346.724 85.4735 346.604 85.3891C346.483 85.3048 346.339 85.2596 346.19 85.26H222.53C222.355 85.26 222.187 85.3295 222.063 85.4533C221.939 85.5771 221.87 85.745 221.87 85.92C221.67 128.01 222.05 170.11 221.74 212.19C221.666 222.277 221.75 232.36 221.99 242.44C221.99 242.496 222.005 242.55 222.031 242.599C222.058 242.648 222.096 242.689 222.143 242.72C222.189 242.75 222.242 242.769 222.297 242.774C222.353 242.78 222.408 242.771 222.46 242.75C228.24 240.32 238.2 237.32 242.54 233.05ZM426.66 373.31C426.84 304.15 426.85 234.987 426.69 165.82C426.69 165.666 426.646 165.516 426.564 165.389C426.482 165.263 426.366 165.166 426.23 165.11C416.45 161.07 408.23 165.74 411.33 177C413.93 186.42 409.43 191.73 403.15 197.89C394.89 205.99 382.57 209.31 372.25 203.26C367.66 200.58 362.91 194.86 358.34 190.76C358.241 190.668 358.11 190.618 357.973 190.622C357.837 190.626 357.707 190.683 357.61 190.78L277.12 271.26C275.96 272.42 276.2 273 277.84 273C303.306 272.993 329.273 272.997 355.74 273.01C371.09 273.02 375.53 281.85 375.52 295.14C375.486 325.16 375.486 355.177 375.52 385.19C375.526 391.583 375.143 395.917 374.37 398.19C371.62 406.27 364.75 409.49 356.4 409.5C323.906 409.507 291.41 409.503 258.91 409.49C250.91 409.49 245.87 407.95 241.58 401.54C241.49 401.407 241.372 401.299 241.236 401.224C241.1 401.149 240.95 401.11 240.8 401.11L222.56 401.05C222.424 401.05 222.295 401.104 222.199 401.199C222.103 401.295 222.05 401.425 222.05 401.56L222.01 426.25C222.01 426.314 222.023 426.378 222.049 426.438C222.074 426.497 222.112 426.551 222.159 426.596C222.206 426.642 222.263 426.678 222.325 426.703C222.386 426.727 222.453 426.74 222.52 426.74L384.19 426.75C384.353 426.751 384.512 426.694 384.638 426.59C384.764 426.486 384.849 426.341 384.88 426.18C388.95 404.69 404.69 389.3 426.19 384.86C426.342 384.83 426.478 384.746 426.575 384.623C426.672 384.501 426.723 384.347 426.72 384.19C426.666 380.65 426.646 377.023 426.66 373.31ZM224.19 262.44C219.016 270.847 212.743 282.043 205.37 296.03C205.303 296.159 205.279 296.305 205.301 296.447C205.322 296.589 205.388 296.72 205.49 296.82L215.2 306.56C215.312 306.675 215.46 306.751 215.621 306.774C215.782 306.798 215.946 306.768 216.09 306.69C225.45 301.53 234.806 296.303 244.16 291.01C249.44 288.01 251.6 287.05 254.26 280.91C256.813 275.01 259.376 269.11 261.95 263.21C262.476 261.997 263.206 260.923 264.14 259.99L345.63 178.5C345.672 178.458 345.705 178.409 345.729 178.355C345.752 178.301 345.764 178.243 345.765 178.184C345.766 178.126 345.756 178.068 345.734 178.014C345.713 177.96 345.681 177.911 345.64 177.87L334.09 166.51C333.994 166.417 333.863 166.367 333.726 166.37C333.59 166.374 333.458 166.431 333.36 166.53L252.3 247.58C251.353 248.52 250.273 249.267 249.06 249.82C242.82 252.64 236.313 255.453 229.54 258.26C227.053 259.287 225.27 260.68 224.19 262.44ZM341.61 290.28H269.31C269.162 290.28 269.017 290.322 268.89 290.402C268.763 290.481 268.659 290.595 268.59 290.73C265.85 296.27 261.8 300.623 256.44 303.79C256.306 303.869 256.195 303.98 256.118 304.111C256.041 304.243 256 304.391 256 304.54V392.18C256 392.219 256.008 392.258 256.023 392.295C256.039 392.331 256.062 392.364 256.091 392.392C256.119 392.42 256.153 392.442 256.191 392.457C256.229 392.472 256.269 392.48 256.31 392.48L341.25 392.46L358 392.49C358.132 392.49 358.26 392.437 358.353 392.344C358.447 392.25 358.5 392.123 358.5 391.99L358.49 290.79C358.49 290.657 358.436 290.53 358.34 290.436C358.245 290.343 358.115 290.29 357.98 290.29L341.61 290.28ZM221.89 323.99L221.93 332.15C221.932 332.286 221.984 332.416 222.074 332.511C222.164 332.606 222.284 332.66 222.41 332.66L238.39 332.65C238.457 332.65 238.523 332.636 238.585 332.61C238.647 332.583 238.703 332.544 238.75 332.495C238.798 332.446 238.835 332.387 238.861 332.323C238.887 332.259 238.9 332.19 238.9 332.12L238.96 314.04C238.958 313.986 238.943 313.933 238.915 313.887C238.886 313.84 238.846 313.802 238.798 313.775C238.75 313.748 238.696 313.733 238.64 313.732C238.585 313.731 238.529 313.744 238.48 313.77L222.77 322.49C222.503 322.638 222.281 322.855 222.126 323.119C221.971 323.383 221.89 323.683 221.89 323.99ZM239.029 350.465C239.029 350.401 239.016 350.337 238.992 350.278C238.967 350.218 238.931 350.164 238.886 350.118C238.84 350.073 238.786 350.037 238.727 350.012C238.667 349.987 238.604 349.974 238.539 349.974L222.279 349.946C222.215 349.946 222.151 349.958 222.092 349.983C222.032 350.007 221.978 350.043 221.933 350.089C221.887 350.134 221.851 350.188 221.826 350.248C221.802 350.307 221.789 350.371 221.789 350.435L221.731 383.495C221.731 383.559 221.743 383.623 221.768 383.682C221.792 383.742 221.828 383.796 221.874 383.842C221.919 383.887 221.973 383.923 222.033 383.948C222.092 383.973 222.156 383.986 222.22 383.986L238.48 384.014C238.544 384.014 238.608 384.002 238.668 383.977C238.727 383.953 238.781 383.917 238.827 383.871C238.872 383.826 238.909 383.772 238.933 383.712C238.958 383.653 238.971 383.589 238.971 383.525L239.029 350.465ZM59.7897 478.35C59.6097 484.81 58.7097 494.92 68.5597 494.97C77.0264 495.023 98.5897 495.033 133.25 495C145.41 494.99 145.57 488.41 144.86 478.45C144.852 478.315 144.793 478.187 144.694 478.094C144.596 478.001 144.465 477.95 144.33 477.95L60.2997 477.85C60.1679 477.85 60.0411 477.902 59.946 477.995C59.8509 478.089 59.7949 478.216 59.7897 478.35ZM349.95 478.48C349.58 484.12 348.97 494.92 358.56 494.98C366.24 495.027 387.023 495.03 420.91 494.99C434.02 494.98 436.06 491.36 435.11 478.48C435.102 478.342 435.042 478.212 434.941 478.117C434.841 478.023 434.708 477.97 434.57 477.97H350.48C350.344 477.97 350.214 478.023 350.115 478.118C350.017 478.212 349.957 478.342 349.95 478.48Z" fill="black"/>
<path d="M417.25 146.46C440.09 123.093 458.073 105.01 471.2 92.21C478.04 85.54 479 79.02 475.81 69.85C468.11 47.68 451.51 30.28 432.13 17.61C433.277 17.1233 434.35 17.0267 435.35 17.32C461.52 25.09 485.13 48.11 493.81 73.97C495.28 78.33 495.06 81.93 491.85 85.1C470.87 105.813 449.97 126.603 429.15 147.47C429.044 147.576 428.912 147.652 428.768 147.691C428.624 147.729 428.473 147.729 428.33 147.69C424.663 146.623 420.97 146.213 417.25 146.46Z" fill="#F57C00"/>
<path d="M432.13 17.61C451.51 30.28 468.11 47.68 475.81 69.85C479 79.02 478.04 85.54 471.2 92.21C458.073 105.01 440.09 123.093 417.25 146.46C409.857 147.26 403.78 150.423 399.02 155.95C392.06 153.983 386.34 155.17 381.86 159.51C376.26 164.91 374.86 171.95 377.48 179.32C378.12 181.14 378.057 183.047 377.29 185.04C360.39 168.493 343.617 151.843 326.97 135.09C319.48 127.55 323.35 123.31 329.83 117.62C329.948 117.518 330.088 117.445 330.239 117.409C330.391 117.372 330.549 117.373 330.7 117.41C342.18 120.33 351.43 118.003 358.45 110.43C365.37 102.96 367.24 93.32 364.11 83.67C364.064 83.528 364.058 83.3766 364.091 83.2321C364.125 83.0876 364.197 82.9555 364.3 82.85C397.287 49.7966 418.42 28.6633 427.7 19.45C428.96 18.2033 430.437 17.59 432.13 17.61ZM435.675 64.1289C437.237 62.5621 438.112 60.4392 438.108 58.2274C438.104 56.0155 437.221 53.8957 435.655 52.3344L435.428 52.1085C433.861 50.5472 431.738 49.6722 429.527 49.6761C427.315 49.6799 425.195 50.5623 423.634 52.1291L385.545 90.3511C383.983 91.9178 383.108 94.0407 383.112 96.2526C383.116 98.4645 383.999 100.584 385.565 102.146L385.792 102.371C387.359 103.933 389.482 104.808 391.694 104.804C393.905 104.8 396.025 103.918 397.587 102.351L435.675 64.1289ZM459.741 76.28C458.18 74.7132 456.06 73.8308 453.848 73.827C451.636 73.8231 449.513 74.6981 447.947 76.2594L409.654 114.419C408.087 115.98 407.205 118.1 407.201 120.312C407.197 122.524 408.072 124.646 409.633 126.213L409.859 126.44C411.42 128.007 413.54 128.889 415.752 128.893C417.964 128.897 420.087 128.022 421.654 126.461L459.946 88.3012C461.513 86.7399 462.395 84.6201 462.399 82.4082C462.403 80.1963 461.528 78.0734 459.967 76.5067L459.741 76.28Z" fill="#FF9801"/>
<path d="M435.655 52.3344L435.428 52.1085C432.165 48.8572 426.885 48.8665 423.634 52.1291L385.545 90.3511C382.293 93.6138 382.303 98.8944 385.565 102.146L385.792 102.372C389.055 105.623 394.335 105.614 397.586 102.351L435.675 64.1289C438.927 60.8663 438.917 55.5857 435.655 52.3344Z" fill="black"/>
<path d="M443.5 388.75C443.793 409.497 443.88 430.247 443.76 451C443.74 454.413 442.987 457.65 441.5 460.71C313.16 460.77 184.817 460.777 56.4701 460.73C49.5901 460.73 44.5368 460.247 41.3101 459.28C26.4301 454.84 17.0101 441.06 17.0101 425.5C16.9901 315.233 16.9901 204.967 17.0101 94.7C17.0168 85.5533 17.4768 79.3367 18.3901 76.05C21.5601 64.64 31.1901 55.16 42.7901 52.31C45.6301 51.61 50.7935 51.26 58.2801 51.26C162.5 51.24 266.72 51.2433 370.94 51.27C371.287 51.27 371.343 51.3867 371.11 51.62L355.11 67.91C355.002 68.0207 354.871 68.1088 354.723 68.1689C354.575 68.229 354.414 68.26 354.25 68.26C268.777 68.2467 183.307 68.2467 97.8401 68.26C82.7701 68.26 79.3701 72.52 75.2601 86.13C72.3001 95.9167 66.4135 103.01 57.6001 107.41C49.1101 111.66 39.9201 110.03 35.5601 120.68C34.6868 122.807 34.2501 126.243 34.2501 130.99C34.2501 214.75 34.2501 298.51 34.2501 382.27C34.2501 393.08 38.3501 399.05 48.9501 401.55C62.4568 404.743 71.2701 412.843 75.3901 425.85C77.1701 431.497 78.1501 434.49 78.3301 434.83C81.4235 440.777 86.7301 443.75 94.2501 443.75C189.023 443.757 283.797 443.753 378.57 443.74C387.99 443.74 394.63 443.19 399.22 435.43C399.867 434.337 400.797 431.627 402.01 427.3C405.903 413.46 414.94 404.863 429.12 401.51C436.49 399.77 440.98 396.09 443.5 388.75Z" fill="#607D8B"/>
<path d="M447.946 76.2594L409.654 114.419C406.391 117.67 406.382 122.951 409.633 126.213L409.859 126.44C413.11 129.703 418.391 129.712 421.653 126.461L459.946 88.3012C463.209 85.0499 463.218 79.7693 459.967 76.5067L459.741 76.28C456.49 73.0173 451.209 73.0081 447.946 76.2594Z" fill="black"/>
<path d="M93.0695 426.2C88.7495 404.76 73.1395 389.15 51.7595 384.8C51.621 384.772 51.4964 384.697 51.4071 384.588C51.3177 384.478 51.2691 384.341 51.2695 384.2L51.2995 127.93C51.2999 127.788 51.3476 127.65 51.4347 127.54C51.5218 127.429 51.6434 127.352 51.7795 127.32C74.2529 121.973 88.0462 108.123 93.1595 85.77C93.1931 85.6307 93.2725 85.5067 93.3849 85.4179C93.4973 85.329 93.6363 85.2805 93.7795 85.28L204.44 85.26C204.48 85.26 204.521 85.268 204.558 85.2836C204.596 85.2992 204.63 85.322 204.659 85.3508C204.688 85.3796 204.71 85.4138 204.726 85.4514C204.742 85.489 204.75 85.5293 204.75 85.57C204.75 143.61 204.75 201.657 204.75 259.71C204.75 261.07 204.42 262.343 203.76 263.53C199.32 271.503 194.883 279.477 190.45 287.45C182.1 302.47 195.25 310.85 204.38 319.71C204.494 319.821 204.584 319.952 204.646 320.096C204.708 320.241 204.74 320.395 204.74 320.55L204.75 426.43C204.75 426.51 204.717 426.586 204.659 426.642C204.601 426.698 204.522 426.73 204.44 426.73L93.6695 426.7C93.5282 426.7 93.3912 426.65 93.2818 426.559C93.1723 426.468 93.0973 426.341 93.0695 426.2ZM170.48 110.73C170.48 108.547 169.612 106.454 168.069 104.911C166.526 103.367 164.432 102.5 162.25 102.5H119.29C117.107 102.5 115.013 103.367 113.47 104.911C111.927 106.454 111.06 108.547 111.06 110.73V111.23C111.06 113.413 111.927 115.506 113.47 117.049C115.013 118.593 117.107 119.46 119.29 119.46H162.25C164.432 119.46 166.526 118.593 168.069 117.049C169.612 115.506 170.48 113.413 170.48 111.23V110.73ZM179.22 162.31C179.22 155.467 176.501 148.905 171.663 144.067C166.824 139.228 160.262 136.51 153.42 136.51H94.0595C87.2169 136.51 80.6546 139.228 75.8162 144.067C70.9777 148.905 68.2595 155.467 68.2595 162.31V178.95C68.2595 182.338 68.9269 185.693 70.2234 188.823C71.52 191.953 73.4204 194.798 75.8162 197.193C78.2119 199.589 81.0561 201.49 84.1863 202.786C87.3165 204.083 90.6714 204.75 94.0595 204.75H153.42C156.808 204.75 160.163 204.083 163.293 202.786C166.423 201.49 169.267 199.589 171.663 197.193C174.059 194.798 175.959 191.953 177.256 188.823C178.552 185.693 179.22 182.338 179.22 178.95V162.31ZM179.22 247.78C179.22 240.884 176.48 234.271 171.604 229.395C166.728 224.519 160.115 221.78 153.22 221.78H94.2595C87.3639 221.78 80.7507 224.519 75.8748 229.395C70.9988 234.271 68.2595 240.884 68.2595 247.78V264.22C68.2595 271.116 70.9988 277.729 75.8748 282.605C80.7507 287.481 87.3639 290.22 94.2595 290.22H153.22C160.115 290.22 166.728 287.481 171.604 282.605C176.48 277.729 179.22 271.116 179.22 264.22V247.78ZM179.238 333.204C179.25 329.817 178.595 326.461 177.31 323.327C176.025 320.194 174.135 317.344 171.748 314.941C169.362 312.538 166.525 310.628 163.401 309.321C160.277 308.014 156.925 307.336 153.539 307.324L94.1789 307.117C90.7922 307.105 87.4362 307.76 84.3027 309.045C81.1692 310.33 78.3196 312.22 75.9164 314.607C73.5132 316.993 71.6036 319.829 70.2966 322.954C68.9896 326.078 68.3109 329.43 68.299 332.816L68.2407 349.516C68.2289 352.903 68.8843 356.259 70.1694 359.393C71.4545 362.526 73.3443 365.376 75.7307 367.779C78.1172 370.182 80.9536 372.092 84.078 373.399C87.2025 374.706 90.5538 375.384 93.9405 375.396L153.3 375.603C156.687 375.615 160.043 374.96 163.176 373.675C166.31 372.39 169.16 370.5 171.563 368.113C173.966 365.727 175.875 362.891 177.182 359.766C178.489 356.642 179.168 353.29 179.18 349.904L179.238 333.204ZM170.48 400.75C170.48 398.57 169.614 396.479 168.072 394.938C166.53 393.396 164.44 392.53 162.26 392.53H119.28C117.099 392.53 115.009 393.396 113.467 394.938C111.926 396.479 111.06 398.57 111.06 400.75V401.27C111.06 403.45 111.926 405.541 113.467 407.082C115.009 408.624 117.099 409.49 119.28 409.49H162.26C164.44 409.49 166.53 408.624 168.072 407.082C169.614 405.541 170.48 403.45 170.48 401.27V400.75Z" fill="#545C60"/>
<path d="M321.43 154.37C295.22 180.68 269 207.01 242.54 233.05C238.2 237.32 228.24 240.32 222.46 242.75C222.408 242.771 222.353 242.78 222.297 242.774C222.242 242.769 222.189 242.75 222.142 242.72C222.096 242.689 222.058 242.648 222.031 242.599C222.005 242.55 221.99 242.496 221.99 242.44C221.75 232.36 221.666 222.277 221.74 212.19C222.05 170.11 221.67 128.01 221.87 85.92C221.87 85.745 221.939 85.5771 222.063 85.4533C222.187 85.3295 222.355 85.26 222.53 85.26H346.19C346.338 85.2596 346.483 85.3048 346.603 85.3891C346.724 85.4735 346.813 85.5927 346.86 85.73C347.63 87.98 348.66 90.56 348.49 92.85C347.95 100.07 342.06 102.87 335.26 100.92C329.64 99.31 324.25 99.93 319.66 103.65C308.58 112.64 301.24 125.47 308.58 139.28C311.26 144.31 317.09 149.11 321.43 153.65C321.524 153.748 321.576 153.878 321.576 154.013C321.576 154.147 321.524 154.276 321.43 154.37ZM255.91 110.93C255.91 108.692 255.02 106.545 253.438 104.962C251.855 103.379 249.708 102.49 247.47 102.49C245.231 102.49 243.084 103.379 241.502 104.962C239.919 106.545 239.03 108.692 239.03 110.93C239.03 113.168 239.919 115.315 241.502 116.898C243.084 118.481 245.231 119.37 247.47 119.37C249.708 119.37 251.855 118.481 253.438 116.898C255.02 115.315 255.91 113.168 255.91 110.93ZM290.03 110.91C290.03 108.674 289.141 106.53 287.561 104.949C285.98 103.368 283.835 102.48 281.6 102.48C279.364 102.48 277.22 103.368 275.639 104.949C274.058 106.53 273.17 108.674 273.17 110.91C273.17 113.146 274.058 115.29 275.639 116.871C277.22 118.452 279.364 119.34 281.6 119.34C283.835 119.34 285.98 118.452 287.561 116.871C289.141 115.29 290.03 113.146 290.03 110.91ZM255.98 145C255.98 142.809 255.109 140.708 253.56 139.159C252.011 137.61 249.91 136.74 247.72 136.74H247.26C245.069 136.74 242.968 137.61 241.419 139.159C239.87 140.708 239 142.809 239 145V196.42C239 198.611 239.87 200.712 241.419 202.261C242.968 203.81 245.069 204.68 247.26 204.68H247.72C249.91 204.68 252.011 203.81 253.56 202.261C255.109 200.712 255.98 198.611 255.98 196.42V145ZM290.04 145.07C290.04 142.834 289.151 140.69 287.571 139.109C285.99 137.528 283.845 136.64 281.61 136.64C279.374 136.64 277.23 137.528 275.649 139.109C274.068 140.69 273.18 142.834 273.18 145.07C273.18 147.306 274.068 149.45 275.649 151.031C277.23 152.612 279.374 153.5 281.61 153.5C283.845 153.5 285.99 152.612 287.571 151.031C289.151 149.45 290.04 147.306 290.04 145.07Z" fill="#37474F"/>
<path d="M162.25 102.5H119.29C114.744 102.5 111.06 106.185 111.06 110.73V111.23C111.06 115.775 114.744 119.46 119.29 119.46H162.25C166.795 119.46 170.48 115.775 170.48 111.23V110.73C170.48 106.185 166.795 102.5 162.25 102.5Z" fill="black"/>
<path d="M247.47 119.37C252.132 119.37 255.91 115.591 255.91 110.93C255.91 106.269 252.132 102.49 247.47 102.49C242.809 102.49 239.03 106.269 239.03 110.93C239.03 115.591 242.809 119.37 247.47 119.37Z" fill="black"/>
<path d="M281.6 119.34C286.256 119.34 290.03 115.566 290.03 110.91C290.03 106.254 286.256 102.48 281.6 102.48C276.944 102.48 273.17 106.254 273.17 110.91C273.17 115.566 276.944 119.34 281.6 119.34Z" fill="black"/>
<path d="M179.22 178.95C179.22 182.338 178.552 185.693 177.256 188.823C175.959 191.953 174.059 194.798 171.663 197.193C169.267 199.589 166.423 201.49 163.293 202.786C160.163 204.083 156.808 204.75 153.42 204.75H94.0598C90.6717 204.75 87.3167 204.083 84.1865 202.786C81.0563 201.49 78.2122 199.589 75.8164 197.193C73.4207 194.798 71.5202 191.953 70.2237 188.823C68.9271 185.693 68.2598 182.338 68.2598 178.95V162.31C68.2598 155.467 70.978 148.905 75.8164 144.067C80.6548 139.228 87.2172 136.51 94.0598 136.51H153.42C160.262 136.51 166.825 139.228 171.663 144.067C176.502 148.905 179.22 155.467 179.22 162.31V178.95ZM162.2 162.53C162.2 160.143 161.252 157.854 159.564 156.166C157.876 154.478 155.587 153.53 153.2 153.53H94.2798C91.8928 153.53 89.6036 154.478 87.9158 156.166C86.228 157.854 85.2798 160.143 85.2798 162.53V178.75C85.2798 181.137 86.228 183.426 87.9158 185.114C89.6036 186.802 91.8928 187.75 94.2798 187.75H153.2C155.587 187.75 157.876 186.802 159.564 185.114C161.252 183.426 162.2 181.137 162.2 178.75V162.53Z" fill="black"/>
<path d="M247.72 136.74H247.26C242.698 136.74 239 140.438 239 145V196.42C239 200.982 242.698 204.68 247.26 204.68H247.72C252.282 204.68 255.98 200.982 255.98 196.42V145C255.98 140.438 252.282 136.74 247.72 136.74Z" fill="black"/>
<path d="M281.61 153.5C286.265 153.5 290.04 149.726 290.04 145.07C290.04 140.414 286.265 136.64 281.61 136.64C276.954 136.64 273.18 140.414 273.18 145.07C273.18 149.726 276.954 153.5 281.61 153.5Z" fill="black"/>
<path d="M441.5 460.71C442.987 457.65 443.74 454.413 443.76 451C443.88 430.247 443.793 409.497 443.5 388.75L443.44 158.06C443.44 157.901 443.471 157.745 443.531 157.599C443.591 157.453 443.679 157.321 443.79 157.21L460.28 140.79C460.593 140.477 460.75 140.543 460.75 140.99C460.75 244.097 460.75 347.26 460.75 450.48C460.75 462.97 450.31 460.81 441.5 460.71Z" fill="#37474F"/>
<path d="M153.2 153.53H94.2803C89.3097 153.53 85.2803 157.559 85.2803 162.53V178.75C85.2803 183.721 89.3097 187.75 94.2803 187.75H153.2C158.171 187.75 162.2 183.721 162.2 178.75V162.53C162.2 157.559 158.171 153.53 153.2 153.53Z" fill="#FFDC00"/>
<path d="M399.02 155.95C393.3 163.69 391.853 172.133 394.68 181.28C394.726 181.428 394.735 181.585 394.705 181.737C394.675 181.888 394.608 182.031 394.51 182.15C390.05 187.58 383.03 193.3 377.29 185.04C378.056 183.047 378.12 181.14 377.48 179.32C374.86 171.95 376.26 164.91 381.86 159.51C386.34 155.17 392.06 153.983 399.02 155.95Z" fill="#F57C00"/>
<path d="M426.66 373.31C426.646 377.023 426.666 380.65 426.72 384.19C426.723 384.347 426.672 384.501 426.575 384.623C426.478 384.746 426.342 384.829 426.19 384.86C404.69 389.3 388.95 404.69 384.88 426.18C384.849 426.341 384.764 426.486 384.638 426.59C384.512 426.694 384.353 426.751 384.19 426.75L222.52 426.74C222.453 426.74 222.386 426.727 222.325 426.703C222.263 426.678 222.207 426.642 222.159 426.596C222.112 426.551 222.074 426.497 222.049 426.438C222.023 426.378 222.01 426.314 222.01 426.25L222.05 401.56C222.05 401.425 222.103 401.295 222.199 401.199C222.295 401.104 222.425 401.05 222.56 401.05L240.8 401.11C240.95 401.11 241.1 401.149 241.236 401.224C241.372 401.299 241.49 401.407 241.58 401.54C245.87 407.95 250.91 409.49 258.91 409.49C291.41 409.503 323.906 409.507 356.4 409.5C364.75 409.49 371.62 406.27 374.37 398.19C375.143 395.917 375.526 391.583 375.52 385.19C375.486 355.177 375.486 325.16 375.52 295.14C375.53 281.85 371.09 273.02 355.74 273.01C329.273 272.997 303.306 272.993 277.84 273C276.2 273 275.96 272.42 277.12 271.26L357.61 190.78C357.707 190.683 357.837 190.626 357.974 190.622C358.11 190.618 358.241 190.668 358.34 190.76C362.91 194.86 367.66 200.58 372.25 203.26C382.57 209.31 394.89 205.99 403.15 197.89C409.43 191.73 413.93 186.42 411.33 177C408.23 165.74 416.45 161.07 426.23 165.11C426.366 165.166 426.482 165.263 426.564 165.389C426.646 165.516 426.69 165.666 426.69 165.82C426.85 234.987 426.84 304.15 426.66 373.31ZM409.424 281.305C409.422 280.253 409.213 279.212 408.809 278.241C408.405 277.27 407.813 276.388 407.068 275.645C406.323 274.903 405.439 274.314 404.467 273.914C403.494 273.513 402.452 273.307 401.4 273.309L400.58 273.311C399.528 273.313 398.487 273.522 397.516 273.926C396.545 274.33 395.663 274.922 394.92 275.667C394.178 276.412 393.589 277.296 393.189 278.268C392.788 279.241 392.582 280.283 392.584 281.335L392.615 299.075C392.617 300.127 392.826 301.168 393.23 302.139C393.635 303.11 394.226 303.992 394.971 304.735C395.716 305.477 396.6 306.065 397.573 306.466C398.545 306.867 399.587 307.073 400.639 307.071L401.459 307.069C402.511 307.067 403.552 306.858 404.524 306.454C405.495 306.05 406.377 305.458 407.119 304.713C407.862 303.968 408.45 303.084 408.851 302.112C409.252 301.139 409.457 300.097 409.455 299.045L409.424 281.305ZM409.465 332.425C409.469 330.3 408.629 328.262 407.129 326.757C405.63 325.252 403.594 324.404 401.469 324.401L400.629 324.399C399.577 324.397 398.535 324.603 397.563 325.004C396.59 325.404 395.706 325.993 394.961 326.735C394.216 327.478 393.625 328.36 393.22 329.331C392.816 330.302 392.607 331.343 392.605 332.395L392.574 350.155C392.571 352.28 393.411 354.318 394.91 355.823C396.41 357.328 398.446 358.175 400.57 358.179L401.41 358.181C402.462 358.183 403.504 357.977 404.477 357.576C405.449 357.175 406.333 356.587 407.078 355.845C407.823 355.102 408.415 354.22 408.819 353.249C409.223 352.278 409.432 351.237 409.434 350.185L409.465 332.425Z" fill="#37474F"/>
<path d="M224.19 262.44C225.27 260.68 227.053 259.287 229.54 258.26C236.313 255.453 242.82 252.64 249.06 249.82C250.273 249.267 251.353 248.52 252.3 247.58L333.36 166.53C333.458 166.431 333.59 166.374 333.726 166.37C333.863 166.367 333.994 166.417 334.09 166.51L345.64 177.87C345.681 177.911 345.713 177.96 345.734 178.014C345.756 178.068 345.766 178.126 345.765 178.184C345.765 178.243 345.752 178.301 345.729 178.355C345.706 178.409 345.672 178.458 345.63 178.5L264.14 259.99C263.207 260.923 262.477 261.997 261.95 263.21C259.377 269.11 256.813 275.01 254.26 280.91C251.6 287.05 249.44 288.01 244.16 291.01C234.806 296.303 225.45 301.53 216.09 306.69C215.946 306.768 215.782 306.798 215.621 306.774C215.46 306.751 215.312 306.675 215.2 306.56L205.49 296.82C205.389 296.72 205.322 296.589 205.301 296.447C205.279 296.305 205.303 296.159 205.37 296.03C212.743 282.043 219.016 270.847 224.19 262.44Z" fill="#9E9E9E"/>
<path d="M179.22 264.22C179.22 271.116 176.48 277.729 171.605 282.605C166.729 287.481 160.115 290.22 153.22 290.22H94.2598C87.3641 290.22 80.7509 287.481 75.875 282.605C70.999 277.729 68.2598 271.116 68.2598 264.22V247.78C68.2598 240.884 70.999 234.271 75.875 229.395C80.7509 224.519 87.3641 221.78 94.2598 221.78H153.22C160.115 221.78 166.729 224.519 171.605 229.395C176.48 234.271 179.22 240.884 179.22 247.78V264.22ZM162.18 247.71C162.18 245.4 161.262 243.185 159.629 241.551C157.995 239.918 155.78 239 153.47 239H93.9898C91.6797 239 89.4643 239.918 87.8309 241.551C86.1974 243.185 85.2798 245.4 85.2798 247.71V264.29C85.2798 266.6 86.1974 268.815 87.8309 270.449C89.4643 272.082 91.6797 273 93.9898 273H153.47C155.78 273 157.995 272.082 159.629 270.449C161.262 268.815 162.18 266.6 162.18 264.29V247.71Z" fill="black"/>
<path d="M153.47 239H93.9903C89.1799 239 85.2803 242.9 85.2803 247.71V264.29C85.2803 269.1 89.1799 273 93.9903 273H153.47C158.281 273 162.18 269.1 162.18 264.29V247.71C162.18 242.9 158.281 239 153.47 239Z" fill="#FFDC00"/>
<path d="M401.4 273.309L400.58 273.311C396.157 273.318 392.577 276.911 392.584 281.335L392.615 299.075C392.623 303.498 396.215 307.078 400.639 307.071L401.459 307.069C405.883 307.062 409.463 303.469 409.455 299.045L409.424 281.305C409.417 276.882 405.824 273.302 401.4 273.309Z" fill="black"/>
<path d="M341.25 392.46L341.42 372.32C341.423 372.17 341.382 372.024 341.304 371.901C341.225 371.777 341.112 371.683 340.98 371.63L340.04 371.25C341.167 368.763 341.533 366.183 341.14 363.51L341.61 290.28L357.98 290.29C358.115 290.29 358.245 290.343 358.341 290.436C358.436 290.53 358.49 290.657 358.49 290.79L358.5 391.99C358.5 392.123 358.447 392.25 358.354 392.344C358.26 392.437 358.133 392.49 358 392.49L341.25 392.46Z" fill="#549414"/>
<path d="M341.61 290.28L341.14 363.51C339.847 361.757 338.41 360.44 336.83 359.56C335.59 358.867 333.753 358.52 331.32 358.52C315.267 358.5 299.207 358.49 283.14 358.49C281.053 358.49 279.49 358.697 278.45 359.11C271.73 361.76 271.38 371.3 277.81 374.44C279.23 375.133 281.46 375.483 284.5 375.49C300.327 375.517 316.16 375.527 332 375.52C335.493 375.52 338.173 374.097 340.04 371.25L340.98 371.63C341.112 371.683 341.225 371.777 341.304 371.901C341.382 372.024 341.423 372.17 341.42 372.32L341.25 392.46L256.31 392.48C256.269 392.48 256.229 392.472 256.191 392.457C256.154 392.442 256.12 392.42 256.091 392.392C256.062 392.364 256.039 392.331 256.024 392.295C256.008 392.258 256 392.219 256 392.18V304.54C256 304.391 256.041 304.243 256.118 304.111C256.196 303.98 256.306 303.869 256.44 303.79C261.8 300.623 265.85 296.27 268.59 290.73C268.66 290.595 268.764 290.481 268.891 290.402C269.018 290.322 269.163 290.28 269.31 290.28H341.61ZM290.04 315.73C290.04 313.492 289.151 311.345 287.568 309.762C285.985 308.179 283.838 307.29 281.6 307.29C279.362 307.29 277.215 308.179 275.632 309.762C274.049 311.345 273.16 313.492 273.16 315.73C273.16 317.968 274.049 320.115 275.632 321.698C277.215 323.281 279.362 324.17 281.6 324.17C283.838 324.17 285.985 323.281 287.568 321.698C289.151 320.115 290.04 317.968 290.04 315.73Z" fill="#60A917"/>
<path d="M179.181 349.904C179.169 353.29 178.49 356.642 177.183 359.766C175.876 362.891 173.966 365.727 171.563 368.113C169.16 370.5 166.31 372.39 163.177 373.675C160.043 374.96 156.688 375.615 153.301 375.603L93.9412 375.396C90.5544 375.384 87.2031 374.706 84.0787 373.399C80.9542 372.092 78.1178 370.182 75.7314 367.779C73.3449 365.376 71.4552 362.526 70.17 359.393C68.8849 356.259 68.2295 352.903 68.2414 349.516L68.2997 332.816C68.3115 329.43 68.9903 326.078 70.2973 322.954C71.6042 319.829 73.5138 316.993 75.917 314.607C78.3202 312.22 81.1699 310.33 84.3034 309.045C87.4369 307.76 90.7928 307.105 94.1796 307.117L153.539 307.324C156.926 307.336 160.277 308.014 163.402 309.321C166.526 310.628 169.363 312.538 171.749 314.941C174.135 317.344 176.025 320.194 177.31 323.327C178.595 326.461 179.251 329.817 179.239 333.204L179.181 349.904ZM162.2 333.19C162.2 330.819 161.258 328.545 159.582 326.868C157.905 325.192 155.631 324.25 153.26 324.25H94.2202C91.8491 324.25 89.5752 325.192 87.8986 326.868C86.2221 328.545 85.2802 330.819 85.2802 333.19V349.53C85.2802 350.704 85.5114 351.867 85.9607 352.951C86.41 354.036 87.0685 355.021 87.8986 355.852C88.7288 356.682 89.7143 357.34 90.799 357.789C91.8836 358.239 93.0461 358.47 94.2202 358.47H153.26C154.434 358.47 155.597 358.239 156.681 357.789C157.766 357.34 158.752 356.682 159.582 355.852C160.412 355.021 161.07 354.036 161.52 352.951C161.969 351.867 162.2 350.704 162.2 349.53V333.19Z" fill="black"/>
<path d="M281.6 324.17C286.261 324.17 290.04 320.391 290.04 315.73C290.04 311.069 286.261 307.29 281.6 307.29C276.939 307.29 273.16 311.069 273.16 315.73C273.16 320.391 276.939 324.17 281.6 324.17Z" fill="black"/>
<path d="M221.89 323.99C221.89 323.683 221.971 323.383 222.126 323.119C222.281 322.855 222.503 322.638 222.77 322.49L238.48 313.77C238.529 313.744 238.584 313.731 238.64 313.732C238.696 313.733 238.75 313.748 238.798 313.775C238.846 313.802 238.886 313.84 238.915 313.887C238.943 313.933 238.958 313.986 238.96 314.04L238.9 332.12C238.9 332.19 238.886 332.259 238.861 332.323C238.835 332.387 238.798 332.446 238.75 332.495C238.703 332.544 238.647 332.583 238.585 332.61C238.523 332.636 238.457 332.65 238.39 332.65L222.41 332.66C222.284 332.66 222.163 332.606 222.074 332.511C221.984 332.416 221.932 332.286 221.93 332.15L221.89 323.99Z" fill="#37474F"/>
<path d="M153.26 324.25H94.2203C89.2829 324.25 85.2803 328.253 85.2803 333.19V349.53C85.2803 354.467 89.2829 358.47 94.2203 358.47H153.26C158.198 358.47 162.2 354.467 162.2 349.53V333.19C162.2 328.253 158.198 324.25 153.26 324.25Z" fill="#FFDC00"/>
<path d="M401.469 324.401L400.629 324.399C396.205 324.392 392.613 327.972 392.605 332.395L392.574 350.155C392.566 354.579 396.146 358.172 400.57 358.179L401.41 358.181C405.834 358.188 409.426 354.608 409.434 350.185L409.465 332.425C409.473 328.001 405.893 324.408 401.469 324.401Z" fill="black"/>
<path d="M238.54 349.974L222.28 349.946C222.009 349.945 221.79 350.164 221.789 350.435L221.731 383.495C221.731 383.766 221.95 383.985 222.221 383.986L238.481 384.014C238.751 384.015 238.971 383.796 238.971 383.525L239.029 350.465C239.03 350.194 238.811 349.975 238.54 349.974Z" fill="#FEC108"/>
<path d="M341.14 363.51C341.533 366.183 341.166 368.763 340.04 371.25C338.173 374.097 335.493 375.52 332 375.52C316.16 375.527 300.326 375.517 284.5 375.49C281.46 375.483 279.23 375.133 277.81 374.44C271.38 371.3 271.73 361.76 278.45 359.11C279.49 358.697 281.053 358.49 283.14 358.49C299.206 358.49 315.266 358.5 331.32 358.52C333.753 358.52 335.59 358.867 336.83 359.56C338.41 360.44 339.846 361.757 341.14 363.51Z" fill="black"/>
<path d="M162.26 392.53H119.28C114.74 392.53 111.06 396.21 111.06 400.75V401.27C111.06 405.81 114.74 409.49 119.28 409.49H162.26C166.799 409.49 170.48 405.81 170.48 401.27V400.75C170.48 396.21 166.799 392.53 162.26 392.53Z" fill="black"/>
<path d="M68.5602 494.97C58.7102 494.92 59.6102 484.81 59.7902 478.35C59.7954 478.216 59.8514 478.089 59.9465 477.995C60.0415 477.902 60.1683 477.85 60.3002 477.85L144.33 477.95C144.466 477.95 144.596 478.001 144.695 478.094C144.793 478.187 144.853 478.315 144.86 478.45C145.57 488.41 145.41 494.99 133.25 495C98.5902 495.033 77.0268 495.023 68.5602 494.97Z" fill="#9E9E9E"/>
<path d="M358.56 494.98C348.97 494.92 349.58 484.12 349.95 478.48C349.958 478.342 350.017 478.212 350.116 478.118C350.214 478.023 350.345 477.97 350.48 477.97H434.57C434.709 477.97 434.842 478.023 434.942 478.117C435.042 478.212 435.103 478.342 435.11 478.48C436.06 491.36 434.02 494.98 420.91 494.99C387.024 495.03 366.24 495.027 358.56 494.98Z" fill="#9E9E9E"/>
</g>
<defs>
<clipPath id="clip0_273_47">
<rect width="512" height="512" fill="white"/>
</clipPath>
</defs>
</svg>
